<svg width="24" height="24" viewBox="0 0 24 24" fill="none" xmlns="http://www.w3.org/2000/svg">
<circle cx="12" cy="12" r="12" fill="black"/>
<g clip-path="url(#clip0_6286_18509)">
<mask id="mask0_6286_18509" style="mask-type:luminance" maskUnits="userSpaceOnUse" x="7" y="7" width="10" height="10">
<path d="M17 7H7V17H17V7Z" fill="white"/>
</mask>
<g mask="url(#mask0_6286_18509)">
<path d="M12.0634 9.87333C11.6684 9.87333 11.0571 9.42417 10.4134 9.44C9.56338 9.45125 8.78422 9.93292 8.3463 10.6958C7.46421 12.2271 8.1188 14.4887 8.97922 15.7333C9.4013 16.3391 9.89922 17.0209 10.5592 16.9996C11.1925 16.9725 11.43 16.5884 12.1988 16.5884C12.9617 16.5884 13.178 16.9996 13.8488 16.9833C14.5309 16.9725 14.9638 16.3667 15.3805 15.755C15.8622 15.0517 16.0622 14.3696 16.073 14.3321C16.0567 14.3266 14.7472 13.8234 14.7313 12.3084C14.7205 11.0417 15.7647 10.4358 15.8134 10.4088C15.218 9.53792 14.3038 9.44042 13.9842 9.41875C13.1509 9.35375 12.453 9.87333 12.0634 9.87333ZM13.4709 8.59583C13.8222 8.17416 14.0542 7.58459 13.9897 7C13.4867 7.02167 12.8805 7.33542 12.518 7.7575C12.193 8.13083 11.9121 8.73167 11.9875 9.305C12.5451 9.34834 13.1188 9.01834 13.4705 8.59625" fill="white"/>
</g>
</g>
<defs>
<clipPath id="clip0_6286_18509">
<rect width="10" height="10" fill="white" transform="translate(7 7)"/>
</clipPath>
</defs>
</svg>
