<svg width="32" height="40" viewBox="0 0 32 40" fill="none" xmlns="http://www.w3.org/2000/svg">
<path d="M9.48578 30.9685H8.41778V25.3525H9.48578V30.9685ZM9.49778 35.7085H2.68178V31.5445H3.73778V32.7805H8.42978V31.5325H9.49778V35.7085ZM8.42978 34.8565V33.6205H3.73778V34.8565H8.42978ZM3.86978 25.8445C5.36978 25.8445 6.54578 26.8405 6.54578 28.3285C6.54578 29.8285 5.36978 30.7765 3.86978 30.7765C2.36978 30.7765 1.18178 29.8285 1.18178 28.3405C1.18178 26.8645 2.36978 25.8445 3.86978 25.8445ZM3.86978 26.7685C2.95778 26.7685 2.24978 27.3685 2.24978 28.3165C2.24978 29.2645 2.95778 29.8525 3.86978 29.8525C4.79378 29.8525 5.47778 29.2645 5.47778 28.3285C5.47778 27.3685 4.80578 26.7685 3.86978 26.7685ZM19.5086 33.8005C19.5086 35.0605 18.1886 35.8285 15.9686 35.8285C13.7486 35.8285 12.4286 35.0605 12.4286 33.8005C12.4286 32.5285 13.7486 31.7485 15.9686 31.7485C18.1886 31.7485 19.5086 32.5285 19.5086 33.8005ZM11.2886 26.9485V26.0725H17.0126V26.9485H14.7206V27.2365C14.7206 28.7245 15.9806 29.8885 17.1686 30.2485L16.5806 31.1005C15.6446 30.7285 14.6366 29.8285 14.1926 28.8685C13.8566 29.8765 12.7286 30.9445 11.6486 31.3885L11.0126 30.5605C12.3806 30.0685 13.6406 28.7245 13.6406 27.2605V26.9485H11.2886ZM18.4166 33.8005C18.4166 33.0445 17.4806 32.6245 15.9686 32.6245C14.4566 32.6245 13.5326 33.0445 13.5326 33.8005C13.5326 34.5325 14.4566 34.9645 15.9686 34.9645C17.4806 34.9645 18.4166 34.5325 18.4166 33.8005ZM20.9486 29.0005H19.3646V31.8085H18.3086V25.3525H19.3646V28.1125H20.9486V29.0005ZM30.2154 31.8565H28.5954V33.6445H31.1154V34.5085H21.6474V33.6445H24.2034V31.8565H22.7994V28.5685H28.8714V27.0925H22.7874V26.2285H29.9274V29.4325H23.8674V30.9805H30.2154V31.8565ZM25.2354 31.8565V33.6445H27.5514V31.8565H25.2354Z" fill="#7C7C7C"/>
<path fill-rule="evenodd" clip-rule="evenodd" d="M9.75 6.25H22.25V13.75H9.75V6.25ZM8.5 6.25C8.5 5.55965 9.05965 5 9.75 5H22.25C22.9404 5 23.5 5.55965 23.5 6.25V13.75C23.5 14.4404 22.9404 15 22.25 15H9.75C9.05965 15 8.5 14.4404 8.5 13.75V6.25ZM19.125 8.125C19.4701 8.125 19.75 7.84518 19.75 7.5C19.75 7.15482 19.4701 6.875 19.125 6.875C18.7799 6.875 18.5 7.15482 18.5 7.5C18.5 7.84518 18.7799 8.125 19.125 8.125ZM19.75 10C19.75 10.3452 19.4701 10.625 19.125 10.625C18.7799 10.625 18.5 10.3452 18.5 10C18.5 9.65483 18.7799 9.375 19.125 9.375C19.4701 9.375 19.75 9.65483 19.75 10ZM19.125 13.125C19.4701 13.125 19.75 12.8451 19.75 12.5C19.75 12.1548 19.4701 11.875 19.125 11.875C18.7799 11.875 18.5 12.1548 18.5 12.5C18.5 12.8451 18.7799 13.125 19.125 13.125Z" fill="#7C7C7C"/>
</svg>
