<svg width="20" height="16" viewBox="0 0 20 16" xmlns="http://www.w3.org/2000/svg">
<path fill-rule="evenodd" clip-rule="evenodd" d="M16.7324 1H19C19.5523 1 20 1.44772 20 2C20 2.55228 19.5523 3 19 3H16.7324C16.3866 3.5978 15.7403 4 15 4C14.2597 4 13.6134 3.5978 13.2676 3H1C0.44772 3 0 2.55228 0 2C0 1.44772 0.44772 1 1 1H13.2676C13.6134 0.4022 14.2597 0 15 0C15.7403 0 16.3866 0.4022 16.7324 1ZM1 7C0.44772 7 0 7.4477 0 8C0 8.5523 0.44772 9 1 9H8.2676C8.6134 9.5978 9.2597 10 10 10C10.7403 10 11.3866 9.5978 11.7324 9H19C19.5523 9 20 8.5523 20 8C20 7.4477 19.5523 7 19 7H11.7324C11.3866 6.4022 10.7403 6 10 6C9.2597 6 8.6134 6.4022 8.2676 7H1ZM0 14C0 13.4477 0.44772 13 1 13H3.26756C3.61337 12.4022 4.25972 12 5 12C5.74028 12 6.38663 12.4022 6.73244 13H19C19.5523 13 20 13.4477 20 14C20 14.5523 19.5523 15 19 15H6.73244C6.38663 15.5978 5.74028 16 5 16C4.25972 16 3.61337 15.5978 3.26756 15H1C0.44772 15 0 14.5523 0 14Z" fill="black"/>
</svg>
