<svg width="22" height="40" viewBox="0 0 22 40" fill="none" xmlns="http://www.w3.org/2000/svg">
<path fill-rule="evenodd" clip-rule="evenodd" d="M6.375 3.125H13.5624C15.8061 3.125 17.6249 4.94383 17.6249 7.18747C17.6249 9.43112 15.8061 11.2499 13.5624 11.2499H7.62499V17.4999H6.375V3.125ZM7.62499 9.99995H13.5624C15.1157 9.99995 16.3749 8.74076 16.3749 7.18747C16.3749 5.63418 15.1157 4.37499 13.5624 4.37499H7.62499V9.99995Z" fill="#7C7C7C"/>
<path d="M10.1212 29.468L9.64119 30.32C8.04519 30.068 6.31719 29.06 5.80119 28.112C5.34519 29.096 3.67719 30.092 2.00919 30.356L1.50519 29.516C3.16119 29.336 5.09319 28.304 5.24919 26.972H1.94919V26.096H9.68919V26.972H6.37719C6.54519 28.304 8.54919 29.3 10.1212 29.468ZM6.31719 35.84H5.24919V32.168H1.07319V31.304H10.5412V32.168H6.31719V35.84ZM17.576 32.96L16.952 33.764C15.908 33.236 14.78 32.06 14.456 30.98C14.168 32.084 13.04 33.404 11.876 34.016L11.192 33.248C12.644 32.504 13.904 30.98 13.904 28.964V28.7H11.564V27.836H17.312V28.7H14.996V28.952C14.996 30.968 16.244 32.36 17.576 32.96ZM21.2 30.512H19.556V35.84H18.5V25.352H19.556V29.624H21.2V30.512ZM15.98 26.888H12.884V26.012H15.98V26.888Z" fill="#7C7C7C"/>
</svg>
