<svg width="16" height="17" viewBox="0 0 16 17" fill="none" xmlns="http://www.w3.org/2000/svg">
<path fill-rule="evenodd" clip-rule="evenodd" d="M14 2.49967C14 2.13149 13.7016 1.83301 13.3334 1.83301C12.9652 1.83301 12.6667 2.13149 12.6667 2.49967V3.78272C10.6235 1.81581 7.44729 1.35017 4.86404 2.8416C1.73719 4.64689 0.658647 8.63968 2.46091 11.7613C4.26316 14.8829 8.26029 15.9452 11.3871 14.1399C12.9948 13.2117 14.061 11.7047 14.4724 10.0371C14.5606 9.67961 14.3422 9.31834 13.9848 9.23021C13.6273 9.14201 13.266 9.36027 13.1778 9.71774C12.85 11.047 12.0016 12.2455 10.7204 12.9852C8.22802 14.4242 5.04775 13.5751 3.61561 11.0946C2.18346 8.61401 3.03825 5.43532 5.53071 3.9963C7.76362 2.70711 10.5498 3.25451 12.1346 5.16634H10C9.63182 5.16634 9.33335 5.46482 9.33335 5.83301C9.33335 6.20119 9.63182 6.49967 10 6.49967H13.3334C13.7016 6.49967 14 6.20119 14 5.83301V2.49967Z" fill="black"/>
</svg>
