<svg width="22" height="40" viewBox="0 0 22 40" fill="none" xmlns="http://www.w3.org/2000/svg">
<path fill-rule="evenodd" clip-rule="evenodd" d="M7.87549 2.5C7.53031 2.5 7.25049 2.77983 7.25049 3.125V3.75H4.75049C4.06014 3.75 3.50049 4.30964 3.50049 5V16.25C3.50049 16.9404 4.06014 17.5 4.75049 17.5H17.2505C17.9409 17.5 18.5005 16.9404 18.5005 16.25V5C18.5005 4.30965 17.9409 3.75 17.2505 3.75H14.7505V3.125C14.7505 2.77983 14.4706 2.5 14.1255 2.5C13.7804 2.5 13.5005 2.77983 13.5005 3.125V3.75H8.50049V3.125C8.50049 2.77983 8.22066 2.5 7.87549 2.5ZM13.5005 5.625V5H8.50049V5.625C8.50049 5.97018 8.22066 6.25 7.87549 6.25C7.53031 6.25 7.25049 5.97018 7.25049 5.625V5H4.75049V16.25H17.2505V5H14.7505V5.625C14.7505 5.97018 14.4706 6.25 14.1255 6.25C13.7804 6.25 13.5005 5.97018 13.5005 5.625ZM15.6236 7.94963C15.8719 7.70986 15.8789 7.3142 15.6391 7.06588C15.3994 6.81756 15.0036 6.81061 14.7554 7.05037L9.99724 11.6444L7.67004 9.53675C7.41419 9.30504 7.01895 9.3246 6.78724 9.58045C6.55553 9.8363 6.57509 10.2315 6.83094 10.4632L9.59134 12.9632C9.83515 13.184 10.2084 13.1781 10.445 12.9496L15.6236 7.94963Z" fill="#7C7C7C"/>
<path d="M3.46119 26.228C4.44519 26.228 5.09319 26.84 5.45319 27.8H6.88119V25.556H7.88919V35.324H6.88119V31.952H5.42919C5.06919 32.9 4.42119 33.5 3.46119 33.5C1.90119 33.5 1.15719 31.916 1.15719 29.84C1.15719 27.788 1.90119 26.228 3.46119 26.228ZM4.73319 29.852C4.73319 28.244 4.30119 27.116 3.46119 27.116C2.62119 27.116 2.20119 28.244 2.20119 29.852C2.20119 31.472 2.62119 32.6 3.46119 32.6C4.30119 32.6 4.73319 31.472 4.73319 29.852ZM9.92919 35.84H8.90919V25.352H9.92919V35.84ZM6.88119 28.676H5.68119C5.74119 29.048 5.77719 29.432 5.77719 29.852C5.77719 30.296 5.74119 30.704 5.66919 31.088H6.88119V28.676ZM14.348 25.94C15.884 25.94 17.132 26.96 17.132 28.46C17.132 29.96 15.896 30.932 14.348 30.932C12.824 30.932 11.564 29.972 11.564 28.46C11.564 26.972 12.812 25.94 14.348 25.94ZM21.116 29.132V30.02H19.556V31.52H18.488V25.352H19.556V26.96H21.116V27.836H19.556V29.132H21.116ZM19.556 35.852H18.5V32.912H12.764V32.06H19.556V35.852ZM14.348 26.84C13.352 26.84 12.656 27.536 12.656 28.448C12.656 29.408 13.364 30.068 14.348 30.068C15.368 30.068 16.052 29.408 16.052 28.46C16.052 27.536 15.392 26.84 14.348 26.84Z" fill="#7C7C7C"/>
</svg>
