<svg width="24" height="24" viewBox="0 0 24 24" fill="none" xmlns="http://www.w3.org/2000/svg">
<path fill-rule="evenodd" clip-rule="evenodd" d="M11 19.9381V18C11 17.4477 11.4477 17 12 17C12.5523 17 13 17.4477 13 18V19.9381C16.6187 19.4869 19.4869 16.6187 19.9381 13H18C17.4477 13 17 12.5523 17 12C17 11.4477 17.4477 11 18 11H19.9381C19.4869 7.38128 16.6187 4.51314 13 4.06189V6C13 6.55228 12.5523 7 12 7C11.4477 7 11 6.55228 11 6V4.06189C7.38128 4.51314 4.51314 7.38128 4.06189 11H6C6.55228 11 7 11.4477 7 12C7 12.5523 6.55228 13 6 13H4.06189C4.51314 16.6187 7.38128 19.4869 11 19.9381ZM22 12C22 17.5228 17.5228 22 12 22C6.47715 22 2 17.5228 2 12C2 6.47715 6.47715 2 12 2C17.5228 2 22 6.47715 22 12ZM12 14C13.1046 14 14 13.1046 14 12C14 10.8954 13.1046 10 12 10C10.8954 10 10 10.8954 10 12C10 13.1046 10.8954 14 12 14Z" fill="black"/>
</svg>
