<svg width="24" height="24" viewBox="0 0 24 24" fill="none" xmlns="http://www.w3.org/2000/svg">
<path fill-rule="evenodd" clip-rule="evenodd" d="M18 6.00016C18 5.63198 17.7016 5.3335 17.3334 5.3335C16.9652 5.3335 16.6667 5.63198 16.6667 6.00016V7.28321C14.6235 5.3163 11.4473 4.85066 8.86404 6.34209C5.73719 8.14738 4.65865 12.1402 6.46091 15.2618C8.26316 18.3834 12.2603 19.4457 15.3871 17.6404C16.9948 16.7122 18.061 15.2052 18.4724 13.5376C18.5606 13.1801 18.3422 12.8188 17.9848 12.7307C17.6273 12.6425 17.266 12.8608 17.1778 13.2182C16.85 14.5475 16.0016 15.746 14.7204 16.4857C12.228 17.9247 9.04775 17.0756 7.61561 14.5951C6.18346 12.1145 7.03825 8.93581 9.53071 7.49679C11.7636 6.2076 14.5498 6.755 16.1346 8.66683H14C13.6318 8.66683 13.3334 8.96531 13.3334 9.3335C13.3334 9.70168 13.6318 10.0002 14 10.0002H17.3334C17.7016 10.0002 18 9.70168 18 9.3335V6.00016Z" fill="#7C7C7C"/>
</svg>
