<svg width="42" height="40" viewBox="0 0 42 40" fill="none" xmlns="http://www.w3.org/2000/svg">
<path fill-rule="evenodd" clip-rule="evenodd" d="M19.4375 4.375C19.4375 4.72017 19.1577 5 18.8125 5C18.4673 5 18.1875 4.72017 18.1875 4.375C18.1875 4.02982 18.4673 3.75 18.8125 3.75C19.1577 3.75 19.4375 4.02982 19.4375 4.375ZM20.6875 4.375C20.6875 5.41054 19.848 6.25 18.8125 6.25C17.777 6.25 16.9375 5.41054 16.9375 4.375C16.9375 3.33946 17.777 2.5 18.8125 2.5C19.848 2.5 20.6875 3.33946 20.6875 4.375ZM15.375 7.5C15.7202 7.5 16 7.22017 16 6.875C16 6.52982 15.7202 6.25 15.375 6.25C15.0298 6.25 14.75 6.52982 14.75 6.875C14.75 7.22017 15.0298 7.5 15.375 7.5ZM15.375 8.75C16.4105 8.75 17.25 7.91054 17.25 6.875C17.25 5.83946 16.4105 5 15.375 5C14.3395 5 13.5 5.83946 13.5 6.875C13.5 7.91054 14.3395 8.75 15.375 8.75ZM18.7639 9.76729L16.4574 14.3804C16.1487 14.9976 16.6707 15.7044 17.3514 15.5909C19.7671 15.1882 22.2329 15.1882 24.6486 15.5909C25.3292 15.7044 25.8512 14.9976 25.5426 14.3804L23.2361 9.76727C22.3148 7.92466 19.6853 7.92466 18.7639 9.76729ZM17.6459 9.20826L15.3393 13.8214C14.5738 15.3524 15.8685 17.1054 17.5569 16.8239C19.8366 16.444 22.1634 16.444 24.4431 16.8239C26.1315 17.1054 27.4261 15.3524 26.6606 13.8214L24.3541 9.20826C22.9721 6.44434 19.0279 6.44434 17.6459 9.20826ZM23.1875 5C23.5326 5 23.8125 4.72017 23.8125 4.375C23.8125 4.02982 23.5326 3.75 23.1875 3.75C22.8423 3.75 22.5625 4.02982 22.5625 4.375C22.5625 4.72017 22.8423 5 23.1875 5ZM23.1875 6.25C24.223 6.25 25.0625 5.41054 25.0625 4.375C25.0625 3.33946 24.223 2.5 23.1875 2.5C22.152 2.5 21.3125 3.33946 21.3125 4.375C21.3125 5.41054 22.152 6.25 23.1875 6.25ZM27.25 6.875C27.25 7.22017 26.9701 7.5 26.625 7.5C26.2799 7.5 26 7.22017 26 6.875C26 6.52982 26.2799 6.25 26.625 6.25C26.9701 6.25 27.25 6.52982 27.25 6.875ZM28.5 6.875C28.5 7.91054 27.6605 8.75 26.625 8.75C25.5895 8.75 24.75 7.91054 24.75 6.875C24.75 5.83946 25.5895 5 26.625 5C27.6605 5 28.5 5.83946 28.5 6.875Z" fill="#7C7C7C"/>
<path d="M10.3624 29.3005H8.79038V32.9485H7.73438V25.3525H8.79038V28.4125H10.3624V29.3005ZM9.16238 35.5045H2.13038V32.2525H3.18638V34.6405H9.16238V35.5045ZM5.98238 31.3885H1.02637V26.0605H2.07038V27.8485H4.92638V26.0485H5.98238V31.3885ZM4.92638 30.5365V28.6885H2.07038V30.5365H4.92638ZM16.7252 32.2525L16.8332 33.1045C15.7412 33.2725 14.1692 33.3805 12.4052 33.3805H11.4332V29.2045H15.0092V27.1645H11.4332V26.3005H16.0652V30.0685H12.4892V32.5165C13.6652 32.5165 15.3932 32.4805 16.7252 32.2525ZM16.7732 31.5085V30.6445H18.6092V28.8085H16.7732V27.9325H18.6092V25.3525H19.6652V35.8405H18.6092V31.5085H16.7732ZM29.772 29.3125H26.712V30.5605H30.924V31.4245H21.456V30.5605H25.644V29.3125H22.596V25.7725H29.7V26.6365H23.652V28.4485H29.772V29.3125ZM29.808 33.9685C29.808 35.1565 28.488 35.8405 26.184 35.8405C23.892 35.8405 22.572 35.1445 22.572 33.9685C22.572 32.8165 23.892 32.1085 26.184 32.1085C28.488 32.1085 29.808 32.7925 29.808 33.9685ZM26.184 32.9725C24.636 32.9725 23.664 33.3445 23.664 33.9805C23.664 34.6285 24.636 34.9885 26.184 34.9885C27.756 34.9885 28.728 34.6285 28.728 33.9805C28.728 33.3445 27.756 32.9725 26.184 32.9725ZM40.5748 35.7685H32.9548V33.2845H39.1228V32.5165H32.8828V31.6525H36.0148V30.7045H31.8388V29.8645H41.3068V30.7045H37.0828V31.6525H40.1788V34.0765H34.0108V34.8925H40.5748V35.7685ZM40.1188 29.0245H33.0628V25.7605H40.1188V29.0245ZM39.0388 28.1725V26.6125H34.1188V28.1725H39.0388Z" fill="#7C7C7C"/>
</svg>
