<svg width="42" height="52" viewBox="0 0 42 52" fill="none" xmlns="http://www.w3.org/2000/svg">
<path d="M21 51.5C21.7638 51.5 22.6414 51.146 23.5545 50.5913C24.4813 50.0283 25.5044 49.2213 26.5737 48.233C28.7137 46.2552 31.0794 43.5133 33.2817 40.433C35.4847 37.3517 37.5342 33.9178 39.0348 30.551C40.532 27.1921 41.5 23.8621 41.5 21C41.5 9.67816 32.3219 0.5 21 0.5C9.67816 0.5 0.5 9.67816 0.5 21C0.5 23.8621 1.46805 27.1921 2.96519 30.551C4.46584 33.9178 6.51533 37.3517 8.71826 40.433C10.9206 43.5133 13.2863 46.2552 15.4263 48.233C16.4956 49.2213 17.5187 50.0283 18.4455 50.5913C19.3586 51.146 20.2362 51.5 21 51.5Z" fill="#00C2FF" stroke="white"/>
</svg>
