<svg width="20" height="20" viewBox="0 0 20 20" xmlns="http://www.w3.org/2000/svg">
<path fill-rule="evenodd" clip-rule="evenodd" d="M0.29289 0.29289C0.68342 -0.09763 1.31658 -0.09763 1.70711 0.29289L10 8.5858L18.2929 0.29289C18.6834 -0.09763 19.3166 -0.09763 19.7071 0.29289C20.0976 0.68342 20.0976 1.31658 19.7071 1.70711L11.4142 10L19.7071 18.2929C20.0976 18.6834 20.0976 19.3166 19.7071 19.7071C19.3166 20.0976 18.6834 20.0976 18.2929 19.7071L10 11.4142L1.70711 19.7071C1.31658 20.0976 0.68342 20.0976 0.29289 19.7071C-0.09763 19.3166 -0.09763 18.6834 0.29289 18.2929L8.5858 10L0.29289 1.70711C-0.09763 1.31658 -0.09763 0.68342 0.29289 0.29289Z" fill="current"/>
</svg>
