<svg width="16" height="16" viewBox="0 0 16 16" fill="none" xmlns="http://www.w3.org/2000/svg">
<g clip-path="url(#clip0_6783_6046)">
<mask id="mask0_6783_6046" style="mask-type:luminance" maskUnits="userSpaceOnUse" x="0" y="0" width="16" height="16">
<path d="M16 0H0V16H16V0Z" fill="white"/>
</mask>
<g mask="url(#mask0_6783_6046)">
<path fill-rule="evenodd" clip-rule="evenodd" d="M13.7071 2.29289C14.0977 2.68342 14.0977 3.31658 13.7071 3.70711L9.41423 8.00004L13.7071 12.293C14.0976 12.6835 14.0976 13.3167 13.7071 13.7072C13.3166 14.0977 12.6834 14.0977 12.2929 13.7072L8.00002 9.41425L3.70714 13.7072C3.31661 14.0977 2.68345 14.0977 2.29292 13.7072C1.9024 13.3167 1.9024 12.6835 2.29292 12.293L6.5858 8.00004L2.29289 3.70712C1.90236 3.3166 1.90237 2.68343 2.29289 2.29291C2.68341 1.90238 3.31658 1.90238 3.7071 2.29291L8.00002 6.58582L12.2929 2.29289C12.6834 1.90237 13.3166 1.90237 13.7071 2.29289Z" fill="white"/>
</g>
</g>
<defs>
<clipPath id="clip0_6783_6046">
<rect width="16" height="16" fill="white"/>
</clipPath>
</defs>
</svg>
