<svg width="32" height="32" viewBox="0 0 32 32" fill="none" xmlns="http://www.w3.org/2000/svg">
<path fill-rule="evenodd" clip-rule="evenodd" d="M4 7H28V22.3846L25.3351 16.2349C24.639 14.6285 22.361 14.6285 21.6649 16.2349L19.5719 21.0648L19.3511 20.5249C18.6732 18.8679 16.3268 18.8679 15.6489 20.5249L13.8182 25H4V7ZM13 27H4C2.89543 27 2 26.1046 2 25V7C2 5.89543 2.89543 5 4 5H28C29.1046 5 30 5.89543 30 7V25C30 26.1046 29.1046 27 28 27H26.9536H22H17H13ZM10.5 17C12.433 17 14 15.433 14 13.5C14 11.567 12.433 10 10.5 10C8.567 10 7 11.567 7 13.5C7 15.433 8.567 17 10.5 17Z" fill="#7C7C7C"/>
</svg>
