<svg width="23" height="24" viewBox="0 0 23 24" fill="none" xmlns="http://www.w3.org/2000/svg">
<ellipse opacity="0.2" cx="11.5" cy="12" rx="11.5" ry="12" fill="black"/>
<path d="M14 6C13.4477 6 13 6.44772 13 7C13 7.55228 13.4477 8 14 8H14.5858L12.2929 10.2929C11.9024 10.6834 11.9024 11.3166 12.2929 11.7071C12.6834 12.0976 13.3166 12.0976 13.7071 11.7071L16 9.41421V10C16 10.5523 16.4477 11 17 11C17.5523 11 18 10.5523 18 10V7C18 6.44772 17.5523 6 17 6H14Z" fill="white"/>
<path d="M10 18C10.5523 18 11 17.5523 11 17C11 16.4477 10.5523 16 10 16H9.41421L11.7071 13.7071C12.0976 13.3166 12.0976 12.6834 11.7071 12.2929C11.3166 11.9024 10.6834 11.9024 10.2929 12.2929L8 14.5858V14C8 13.4477 7.55228 13 7 13C6.44772 13 6 13.4477 6 14V17C6 17.5523 6.44772 18 7 18H10Z" fill="white"/>
</svg>
