<svg width="32" height="32" viewBox="0 0 32 32" fill="none" xmlns="http://www.w3.org/2000/svg">
<circle cx="16" cy="16" r="15.5" fill="#00C2FF" stroke="white"/>
<path fill-rule="evenodd" clip-rule="evenodd" d="M7.79688 8.38281C7.79688 8.05921 8.05921 7.79688 8.38281 7.79688H23.6172C23.9408 7.79688 24.2031 8.05921 24.2031 8.38281V13.9475C24.2031 14.099 24.1444 14.2446 24.0394 14.3538L23.6172 14.7926V22.4453C23.6172 23.4162 22.8302 24.2031 21.8594 24.2031H10.1406C9.16981 24.2031 8.38281 23.4162 8.38281 22.4453V14.7926L7.96062 14.3538C7.85556 14.2446 7.79688 14.099 7.79688 13.9475V8.38281ZM19.5539 15.7088C20.435 16.2464 21.5395 16.2761 22.4453 15.798V22.4453C22.4453 22.7689 22.183 23.0312 21.8594 23.0312H10.1406C9.81702 23.0312 9.55469 22.7689 9.55469 22.4453V15.798C10.4605 16.2761 11.565 16.2464 12.4461 15.7088C12.0978 16.3117 11.8984 17.0114 11.8984 17.7578C11.8984 20.023 13.7348 21.8594 16 21.8594C18.2652 21.8594 20.1016 20.023 20.1016 17.7578C20.1016 17.0114 19.9022 16.3117 19.5539 15.7088ZM16 13.6562C15.4066 13.6562 14.8426 13.7823 14.3333 14.009L14.0469 13.7114V8.96875H17.9531V13.7114L17.6667 14.009C17.1574 13.7823 16.5934 13.6562 16 13.6562ZM12.875 8.96875H8.96875V13.7114L9.6553 14.4248C10.3468 15.1434 11.4969 15.1434 12.1885 14.4248L12.875 13.7114V8.96875ZM19.125 8.96875V13.7114L19.8115 14.4248C20.503 15.1434 21.6532 15.1434 22.3447 14.4248L23.0312 13.7114V8.96875H19.125ZM16 20.6875C17.618 20.6875 18.9297 19.3758 18.9297 17.7578C18.9297 16.1398 17.618 14.8281 16 14.8281C14.382 14.8281 13.0703 16.1398 13.0703 17.7578C13.0703 19.3758 14.382 20.6875 16 20.6875ZM16.5859 16C16.5859 15.6764 16.3236 15.4141 16 15.4141C15.6764 15.4141 15.4141 15.6764 15.4141 16V17.7578C15.4141 18.0814 15.6764 18.3438 16 18.3438H17.1719C17.4955 18.3438 17.7578 18.0814 17.7578 17.7578C17.7578 17.4342 17.4955 17.1719 17.1719 17.1719H16.5859V16Z" fill="white"/>
</svg>
