<svg width="20" height="20" viewBox="0 0 20 20" fill="none" xmlns="http://www.w3.org/2000/svg">
<g clip-path="url(#clip0_1915_13856)">
<path d="M10.127 5.74667C9.337 5.74667 8.1145 4.84833 6.827 4.88C5.127 4.9025 3.56867 5.86583 2.69284 7.39167C0.92867 10.4542 2.23784 14.9775 3.95867 17.4667C4.80284 18.6783 5.79867 20.0417 7.11867 19.9992C8.38534 19.945 8.86034 19.1767 10.3978 19.1767C11.9237 19.1767 12.3562 19.9992 13.6978 19.9667C15.062 19.945 15.9278 18.7333 16.7612 17.51C17.7245 16.1033 18.1245 14.7392 18.1462 14.6642C18.1137 14.6533 15.4945 13.6467 15.4628 10.6167C15.4412 8.08333 17.5295 6.87167 17.627 6.8175C16.4362 5.07583 14.6078 4.88083 13.9687 4.8375C12.302 4.7075 10.9062 5.74667 10.127 5.74667ZM12.942 3.19167C13.6445 2.34833 14.1087 1.16917 13.9795 0C12.9737 0.0433333 11.7612 0.670833 11.0362 1.515C10.3862 2.26167 9.8245 3.46333 9.97534 4.61C11.0903 4.69667 12.2378 4.03667 12.9412 3.1925" fill="white"/>
</g>
<defs>
<clipPath id="clip0_1915_13856">
<rect width="20" height="20" fill="white"/>
</clipPath>
</defs>
</svg>
