<svg width="20" height="20" viewBox="0 0 20 20" fill="none" xmlns="http://www.w3.org/2000/svg">
<g clip-path="url(#clip0_1915_13863)">
<path d="M8.2239 17.0809C8.80031 17.1657 9.39385 17.2097 10 17.2097C15.5229 17.2097 20 13.5437 20 9.02149C20 4.49927 15.5229 0.833313 10 0.833313C4.47713 0.833313 0 4.49927 0 9.02149C0 11.9452 1.87169 14.5106 4.68728 15.9592C4.53405 16.5078 3.70287 19.4885 3.66985 19.7226C3.66985 19.7226 3.64995 19.8986 3.75969 19.9657C3.86944 20.0328 3.99846 19.9807 3.99846 19.9807C4.31313 19.9351 7.64687 17.5032 8.2239 17.0809Z" fill="black"/>
</g>
<defs>
<clipPath id="clip0_1915_13863">
<rect width="20" height="20" fill="white"/>
</clipPath>
</defs>
</svg>
